<svg width="211" height="64" viewBox="0 0 211 64" fill="none" xmlns="http://www.w3.org/2000/svg">
<path fill-rule="evenodd" clip-rule="evenodd" d="M30.2911 30.9705C33.0315 27.4682 37.4197 25.1993 42.3656 25.1993C47.3406 25.1993 51.7511 27.495 54.4882 31.0324C54.3717 31.1462 54.2656 31.2642 54.1695 31.382C53.6682 31.9988 53.2909 32.7934 52.9888 33.6003C52.3802 35.2231 51.916 37.3429 51.4862 39.3278L51.448 39.5063C51.0192 41.4876 50.6206 43.3303 50.1386 44.6982C49.9221 45.3127 49.7168 45.7472 49.5347 46.0254C49.3447 45.7449 49.1292 45.3052 48.901 44.6818C48.3856 43.2747 47.952 41.3607 47.4925 39.317L47.4776 39.2501V39.25C47.0359 37.2871 46.5675 35.2043 45.9834 33.61C45.6899 32.8091 45.3299 32.0225 44.859 31.4113C44.3968 30.8116 43.6275 30.1347 42.5023 30.1347C41.3842 30.1347 40.6114 30.8042 40.1425 31.3972C39.6625 32.0045 39.2882 32.7878 38.98 33.5891C38.3591 35.2026 37.8515 37.3133 37.3791 39.301L37.3304 39.5063C36.8626 41.4753 36.4253 43.3162 35.9289 44.6867C35.7395 45.21 35.5606 45.6083 35.3988 45.8927C35.2406 45.6096 35.0662 45.214 34.8819 44.6951C34.4057 43.3538 33.9886 41.5644 33.5405 39.6426L33.4621 39.3063C32.9979 37.3174 32.4943 35.2029 31.8646 33.5843C31.5517 32.7801 31.1691 31.9928 30.6739 31.3828C30.5617 31.2447 30.4343 31.1045 30.2911 30.9705ZM28.6326 33.6596C28.7631 33.9045 28.9012 34.208 29.0439 34.575C29.589 35.976 30.0507 37.8877 30.5262 39.9249L30.6188 40.3219C31.0517 42.1807 31.502 44.1144 32.0325 45.6083C32.3146 46.4028 32.6553 47.181 33.0935 47.7858C33.5079 48.3578 34.2513 49.0967 35.3944 49.0967C36.5342 49.0967 37.2793 48.3614 37.6965 47.792C38.1384 47.1886 38.4847 46.4112 38.7725 45.6162C39.3243 44.0927 39.7941 42.1138 40.2437 40.2199V40.2198L40.3125 39.9303C40.7969 37.8918 41.2633 35.9763 41.8044 34.5702C42.055 33.9187 42.2897 33.4649 42.4939 33.1833C42.6876 33.4625 42.9088 33.9091 43.1434 34.5493C43.6589 35.9566 44.092 37.8705 44.5517 39.9142L44.5668 39.9811C45.0083 41.9441 45.4767 44.027 46.0608 45.6211C46.3543 46.4223 46.7143 47.2089 47.1852 47.8199C47.6475 48.4198 48.4167 49.0967 49.5417 49.0967C50.6727 49.0967 51.4392 48.4136 51.8959 47.8084C52.3597 47.1943 52.7085 46.4051 52.9902 45.6052C53.5317 44.0687 53.9622 42.0752 54.3727 40.1788V40.1787L54.4315 39.9034C54.8736 37.8622 55.2978 35.9558 55.8217 34.559C55.9351 34.2551 56.0469 33.996 56.1535 33.7784C56.9562 35.5265 57.4014 37.4567 57.4014 39.4857C57.4014 47.3757 50.6699 53.7721 42.3656 53.7721C34.0615 53.7721 27.3296 47.3757 27.3296 39.4857C27.3296 37.4106 27.7952 35.4388 28.6326 33.6596ZM42.3656 22.342C32.4006 22.342 24.3224 30.0175 24.3224 39.4857C24.3224 48.9538 32.4006 56.6292 42.3656 56.6292C52.3308 56.6292 60.4086 48.9538 60.4086 39.4857C60.4086 30.0175 52.3308 22.342 42.3656 22.342ZM42.7094 32.9442C42.7094 32.9445 42.7058 32.9472 42.6988 32.9511C42.7058 32.9458 42.7094 32.9438 42.7094 32.9442ZM42.2937 32.9461C42.2867 32.9421 42.2833 32.9393 42.2833 32.9389C42.2833 32.9385 42.2868 32.9406 42.2937 32.9461ZM49.3131 46.2966C49.3131 46.2966 49.3163 46.2935 49.3228 46.2896C49.3163 46.2949 49.3131 46.2971 49.3131 46.2966ZM49.7503 46.2851C49.7573 46.2891 49.761 46.2918 49.761 46.2922C49.761 46.2926 49.7573 46.2904 49.7503 46.2851ZM35.0862 46.3223C35.0861 46.3218 35.0905 46.3178 35.0992 46.3121C35.0906 46.3196 35.0862 46.3227 35.0862 46.3223ZM35.6952 46.3148C35.7038 46.3205 35.7081 46.3245 35.7081 46.3249C35.7081 46.3254 35.7037 46.3227 35.6952 46.3148Z" fill="#81818B"/>
<path d="M70.3716 49.6351L65.9962 35.4144H69.8287L72.4238 45.6498L75.441 35.4144H79.726L82.7437 45.6498L85.3687 35.4144H89.2012L84.7954 49.6351H80.7823L77.5835 38.9982L74.3852 49.6351H70.3716Z" fill="#81818B"/>
<path d="M94.8245 49.9793C93.5372 49.9793 92.4809 49.7877 91.6562 49.4055C90.8319 49.0042 90.2182 48.4786 89.8155 47.8287C89.4134 47.1788 89.2123 46.4621 89.2123 45.6785C89.2123 44.3597 89.7551 43.2893 90.8414 42.4674C91.9276 41.6455 93.5577 41.2346 95.7302 41.2346H99.5322V40.8905C99.5322 39.9157 99.2403 39.199 98.657 38.7402C98.0738 38.2815 97.3493 38.0522 96.4846 38.0522C95.6997 38.0522 95.0156 38.2337 94.4324 38.5969C93.8491 38.9409 93.4868 39.457 93.3461 40.1451H89.574C89.6748 39.113 90.0371 38.2146 90.6602 37.45C91.3044 36.6855 92.1292 36.1025 93.1346 35.7012C94.141 35.2807 95.2671 35.0704 96.5145 35.0704C98.6471 35.0704 100.327 35.5769 101.554 36.5899C102.781 37.603 103.395 39.0366 103.395 40.8905V49.6351H100.105L99.7433 47.3416C99.3007 48.1061 98.677 48.7366 97.8727 49.2338C97.0878 49.7306 96.0719 49.9793 94.8245 49.9793ZM95.6997 47.112C96.8064 47.112 97.6611 46.7678 98.2643 46.0798C98.888 45.3919 99.2807 44.5411 99.4419 43.5282H96.1523C95.1264 43.5282 94.3925 43.7098 93.9494 44.0729C93.5073 44.4168 93.2858 44.8472 93.2858 45.3631C93.2858 45.9175 93.5073 46.3475 93.9494 46.6532C94.3925 46.9589 94.9752 47.112 95.6997 47.112Z" fill="#81818B"/>
<path d="M109.475 49.6351L103.983 35.4144H108.026L111.828 46.1661L115.63 35.4144H119.674L114.152 49.6351H109.475Z" fill="#81818B"/>
<path d="M127.438 49.9793C125.93 49.9793 124.592 49.6732 123.425 49.0617C122.258 48.4499 121.343 47.5898 120.679 46.4811C120.015 45.3728 119.684 44.092 119.684 42.6394C119.684 41.1677 120.006 39.8584 120.649 38.7116C121.313 37.5648 122.218 36.676 123.365 36.0452C124.531 35.3954 125.899 35.0704 127.468 35.0704C128.937 35.0704 130.235 35.3762 131.361 35.9879C132.487 36.5995 133.363 37.4405 133.986 38.5109C134.63 39.5621 134.952 40.7376 134.952 42.0373C134.952 42.2476 134.942 42.4674 134.922 42.6967C134.922 42.9262 134.911 43.165 134.891 43.4135H123.516C123.596 44.5221 123.999 45.3919 124.723 46.0228C125.467 46.6532 126.362 46.9687 127.409 46.9687C128.192 46.9687 128.847 46.8063 129.369 46.4811C129.912 46.1373 130.315 45.6976 130.576 45.1622H134.499C134.218 46.0608 133.745 46.8828 133.081 47.6283C132.437 48.3543 131.633 48.9277 130.667 49.3484C129.722 49.7687 128.645 49.9793 127.438 49.9793ZM127.468 38.0522C126.523 38.0522 125.688 38.3102 124.964 38.8262C124.24 39.3232 123.777 40.0878 123.576 41.1199H131.029C130.969 40.1833 130.607 39.4379 129.943 38.8836C129.279 38.3293 128.454 38.0522 127.468 38.0522Z" fill="#81818B"/>
<path d="M136.994 49.635V28.9922H140.856V49.635H136.994Z" fill="#81818B"/>
<path d="M150.867 49.9793C149.359 49.9793 148.021 49.6732 146.854 49.0617C145.688 48.4499 144.772 47.5898 144.108 46.4811C143.444 45.3728 143.113 44.092 143.113 42.6394C143.113 41.1677 143.435 39.8584 144.078 38.7116C144.742 37.5648 145.647 36.676 146.794 36.0452C147.961 35.3954 149.328 35.0704 150.898 35.0704C152.366 35.0704 153.664 35.3762 154.79 35.9879C155.917 36.5995 156.792 37.4405 157.415 38.5109C158.059 39.5621 158.381 40.7376 158.381 42.0373C158.381 42.2476 158.371 42.4674 158.351 42.6967C158.351 42.9262 158.341 43.165 158.321 43.4135H146.945C147.025 44.5221 147.428 45.3919 148.152 46.0228C148.896 46.6532 149.791 46.9687 150.838 46.9687C151.622 46.9687 152.276 46.8063 152.799 46.4811C153.342 46.1373 153.744 45.6976 154.006 45.1622H157.929C157.647 46.0608 157.174 46.8828 156.51 47.6283C155.866 48.3543 155.062 48.9277 154.096 49.3484C153.151 49.7687 152.075 49.9793 150.867 49.9793ZM150.898 38.0522C149.953 38.0522 149.117 38.3102 148.393 38.8262C147.669 39.3232 147.206 40.0878 147.005 41.1199H154.458C154.398 40.1833 154.036 39.4379 153.372 38.8836C152.708 38.3293 151.884 38.0522 150.898 38.0522Z" fill="#81818B"/>
<path d="M166.609 49.9793C165.281 49.9793 164.114 49.7784 163.109 49.3772C162.102 48.9564 161.297 48.3831 160.694 47.6566C160.091 46.9306 159.729 46.0896 159.608 45.134H163.5C163.621 45.6878 163.943 46.1661 164.466 46.5674C165.009 46.9496 165.703 47.1408 166.548 47.1408C167.393 47.1408 168.007 46.9784 168.389 46.6532C168.791 46.3285 168.992 45.9555 168.992 45.5352C168.992 44.9234 168.711 44.5124 168.148 44.3022C167.584 44.0729 166.799 43.8532 165.793 43.6429C165.15 43.5091 164.497 43.3466 163.833 43.1555C163.168 42.9644 162.555 42.7254 161.992 42.4388C161.449 42.1329 161.006 41.7506 160.664 41.2919C160.322 40.814 160.151 40.2311 160.151 39.543C160.151 38.2815 160.674 37.2207 161.721 36.3606C162.786 35.5005 164.275 35.0704 166.186 35.0704C167.956 35.0704 169.365 35.4622 170.41 36.2459C171.477 37.0296 172.11 38.1095 172.312 39.4857H168.66C168.439 38.4344 167.604 37.9088 166.156 37.9088C165.432 37.9088 164.868 38.0426 164.466 38.3102C164.084 38.5778 163.893 38.9122 163.893 39.3136C163.893 39.7342 164.184 40.0686 164.768 40.3171C165.351 40.5656 166.126 40.7949 167.091 41.0052C168.137 41.2346 169.093 41.4926 169.958 41.7793C170.843 42.0469 171.547 42.4579 172.07 43.0122C172.593 43.5473 172.855 44.3212 172.855 45.3343C172.875 46.2139 172.633 47.0067 172.131 47.7141C171.628 48.4211 170.904 48.9754 169.958 49.3772C169.013 49.7784 167.896 49.9793 166.609 49.9793Z" fill="#81818B"/>
<path d="M181.255 49.9793C179.927 49.9793 178.76 49.7784 177.755 49.3772C176.749 48.9564 175.944 48.3831 175.341 47.6566C174.737 46.9306 174.375 46.0896 174.255 45.134H178.147C178.268 45.6878 178.59 46.1661 179.113 46.5674C179.656 46.9496 180.35 47.1408 181.195 47.1408C182.04 47.1408 182.653 46.9784 183.036 46.6532C183.438 46.3285 183.639 45.9555 183.639 45.5352C183.639 44.9234 183.357 44.5124 182.794 44.3022C182.231 44.0729 181.446 43.8532 180.44 43.6429C179.797 43.5091 179.143 43.3466 178.479 43.1555C177.815 42.9644 177.202 42.7254 176.638 42.4388C176.096 42.1329 175.652 41.7506 175.311 41.2919C174.968 40.814 174.798 40.2311 174.798 39.543C174.798 38.2815 175.321 37.2207 176.367 36.3606C177.433 35.5005 178.922 35.0704 180.833 35.0704C182.603 35.0704 184.011 35.4622 185.057 36.2459C186.123 37.0296 186.757 38.1095 186.958 39.4857H183.307C183.086 38.4344 182.251 37.9088 180.803 37.9088C180.078 37.9088 179.515 38.0426 179.113 38.3102C178.731 38.5778 178.539 38.9122 178.539 39.3136C178.539 39.7342 178.831 40.0686 179.415 40.3171C179.998 40.5656 180.772 40.7949 181.738 41.0052C182.784 41.2346 183.74 41.4926 184.605 41.7793C185.49 42.0469 186.194 42.4579 186.717 43.0122C187.24 43.5473 187.502 44.3212 187.502 45.3343C187.522 46.2139 187.28 47.0067 186.777 47.7141C186.274 48.4211 185.55 48.9754 184.605 49.3772C183.659 49.7784 182.543 49.9793 181.255 49.9793Z" fill="#81818B"/>
</svg>
